<svg width="84" height="84" viewBox="0 0 84 84" fill="none" xmlns="http://www.w3.org/2000/svg">
<path d="M49.8314 25.677C50.3345 25.5931 50.851 25.5495 51.3778 25.5495C56.5247 25.5495 60.6967 29.7216 60.6967 34.8684C60.6967 35.8387 60.548 36.7743 60.2731 37.6542C60.2731 37.6542 58.2044 42.1717 57.5725 42.6505C56.9406 43.1292 48.4529 44.9178 45.7356 41.7962C43.019 38.6739 41.0823 33.354 41.0823 33.354L49.8314 25.677Z" fill="#FE8F8D"/>
<path d="M33.4239 20.4854V30.3874L35.0536 30.5701L41.5674 18.2097L53.1146 13.6198C52.4693 12.2637 51.6945 11.0319 50.8152 9.95206C49.3386 9.20673 47.7403 8.79849 46.0715 8.79849C40.3145 8.79849 35.3946 13.646 33.4239 20.4854Z" fill="#FF5D5D"/>
<path d="M61.4754 19.9348C61.4754 18.9466 61.4754 17.9482 61.4754 17.0477C54.6546 17.3355 41.0092 19.5811 39.9614 32.856L46.3316 35.6893C46.3316 35.6893 46.1349 19.4132 61.4754 19.9348Z" fill="#72D8FF"/>
<path d="M28.9103 27.9066V12.1778C28.9103 11.0249 27.9753 10.0898 26.8223 10.0898H25.5694C24.9119 10.4417 24.4646 11.1338 24.4646 11.9317V28.8718L28.9103 27.9066Z" fill="#72D8FF"/>
<path d="M66.33 45.5721C65.0624 42.7357 62.8924 40.517 60.2789 39.1686C60.195 39.1865 60.1123 39.2038 60.0277 39.2231C60.0277 39.2231 59.8604 39.0558 59.4688 38.7873C57.0541 37.7407 54.3214 37.4094 51.5996 37.9804C51.4573 38.0105 51.3138 38.0419 51.1683 38.0746C51.1683 38.0746 48.2921 35.1984 38.4644 34.1198C36.3194 32.0735 34.2026 30.5201 32.1396 29.4774C30.0754 30.0977 28.1323 31.4077 26.35 33.4405C20.5976 40.0017 22.2151 51.6873 25.0318 56.3612C26.591 60.5044 27.0755 63.4338 31.3315 68.4364C37.1512 75.2784 45.0442 80.0362 53.7863 82.0998L54.3765 82.2395C56.7432 81.9325 59.0068 81.0366 60.9499 79.617L62.0592 78.807C66.8581 75.3014 69.8702 69.8624 70.2963 63.935C70.6815 58.5696 69.7349 53.1921 67.54 48.2811L66.33 45.5721Z" fill="#FF5D5D"/>
<path d="M67.074 51.463C67.0759 51.4668 67.0778 51.4707 67.0791 51.4739C67.3579 52.0981 67.9494 52.464 68.5768 52.464C68.8011 52.464 69.0299 52.4172 69.2503 52.3192C70.0899 51.9462 70.4526 50.9894 70.0771 50.1409C69.7022 49.2923 68.7498 48.9174 67.909 49.2872C67.0682 49.6576 66.7016 50.6132 67.074 51.463Z" fill="black"/>
<path d="M71.6004 56.2445C71.4594 55.3498 70.6193 54.7384 69.724 54.8807C68.8293 55.0217 68.2186 55.8619 68.3602 56.7572C68.7281 59.088 68.8293 61.4637 68.6601 63.8176C68.2679 69.2746 65.5096 74.2548 61.0921 77.4822L59.9828 78.2923C57.8096 79.8797 55.2391 80.7186 52.5481 80.7186C51.5739 80.7186 50.5992 80.6052 49.652 80.3815L45.3043 79.3548C36.9013 77.3707 29.2365 72.7077 23.7218 66.2254C21.2705 63.3434 20.165 61.2471 19.3159 59.088C19.3838 58.8688 19.4081 58.6324 19.3761 58.3895C19.3671 58.319 18.5596 51.2329 28.5527 46.684C35.4061 43.5643 38.6124 38.229 39.7281 35.929C47.2417 36.9659 49.8276 39.0808 50.0198 39.2467C50.4165 39.6672 50.9638 39.803 51.5304 39.6748C51.6669 39.6441 51.8021 39.6146 51.9367 39.5864C57.1937 38.4828 62.6161 41.2828 64.8322 46.2412C65.202 47.0685 66.1723 47.4396 66.9996 47.0698C67.827 46.7 68.1974 45.7298 67.8283 44.9024C66.5728 42.0948 64.4618 39.7306 61.8336 38.1598C61.8349 38.1541 61.8374 38.1489 61.8394 38.1432C62.17 37.0864 62.3373 35.9841 62.3373 34.8677C62.3373 34.644 62.3283 34.4223 62.3155 34.2018H63.4537C64.3593 34.2018 65.0943 33.4674 65.0943 32.5612C65.0943 31.655 64.3593 30.9206 63.4537 30.9206H61.599C61.1773 29.8324 60.5884 28.8269 59.861 27.938L60.6038 27.1952C61.2446 26.5544 61.2446 25.5155 60.6038 24.8746C59.9629 24.2344 58.9247 24.2344 58.2838 24.8746L57.4251 25.7334C56.0946 24.8503 54.561 24.2498 52.9101 24.0178C55.084 22.2791 57.9397 21.4556 61.4196 21.5742C61.8637 21.5908 62.2957 21.4229 62.6161 21.114C62.9359 20.8051 63.116 20.3796 63.116 19.9348V13.6851C63.116 12.8315 62.4616 12.1207 61.6106 12.0502C61.3446 12.0284 58.2723 11.7945 54.2778 12.2752C52.4917 8.81898 49.9775 6.25167 47.0859 4.82638L48.2472 3.09283C48.7516 2.33981 48.5497 1.32083 47.7967 0.817107C47.0443 0.312744 46.0253 0.513976 45.5209 1.267L43.8585 3.74908C43.1497 3.61834 42.4275 3.54849 41.6962 3.54849C41.2745 3.54849 40.8548 3.5722 40.4389 3.61642V1.64062C40.4389 0.734434 39.7044 0 38.7982 0C37.892 0 37.1576 0.734434 37.1576 1.64062V4.44634C35.6182 5.07311 34.1603 6.01967 32.8286 7.27321C31.832 8.2108 30.9354 9.29515 30.1491 10.4981C29.5339 9.28425 28.2739 8.4492 26.8223 8.4492H22.3689C20.313 8.4492 18.6404 10.1219 18.6404 12.1778V28.9486C17.8149 29.5902 17.019 30.3419 16.2576 31.2103C12.6611 35.3125 11.9452 40.6881 11.9779 44.4749C12.0151 48.7585 13.0507 53.1254 14.6875 55.9253C14.9349 56.588 15.1573 57.2269 15.3732 57.8467C16.4762 61.0087 17.5176 63.9958 21.2224 68.3511C27.187 75.3629 35.4715 80.4046 44.5507 82.5483L48.8977 83.5749C50.0923 83.8569 51.3202 83.9998 52.5481 83.9998C55.9395 83.9998 59.1798 82.9424 61.9175 80.9423L63.0269 80.1322C68.2256 76.3344 71.4716 70.4743 71.933 64.0528C72.1202 61.4496 72.008 58.8227 71.6004 56.2445ZM51.5797 36.3122C50.9183 35.8521 49.791 35.1965 48.0293 34.5389C48.1652 32.9598 48.6234 29.9843 50.164 27.2862C50.5633 27.2234 50.9709 27.1901 51.3778 27.1901C55.6114 27.1901 59.0561 30.6348 59.0561 34.8683C59.0561 35.5201 58.9734 36.1635 58.8132 36.7871C56.4843 36.0322 53.99 35.8623 51.5797 36.3122ZM59.8347 15.2668V18.3019C55.7703 18.4781 52.4173 19.8355 49.85 22.3464C46.2445 25.8744 45.1569 30.7751 44.8307 33.5597C43.2612 33.1681 41.3976 32.815 39.1924 32.5516C38.6938 32.0895 38.1971 31.6537 37.7024 31.2423C37.7049 31.2026 37.7081 31.1635 37.7081 31.1231C37.7081 26.7165 39.1321 23.1687 41.9398 20.5789C47.2795 15.6538 56.2818 15.2321 59.8347 15.2668ZM41.6962 6.82973C42.5185 6.82973 43.3285 6.95085 44.1168 7.18092C44.1174 7.18092 44.1187 7.18157 44.1194 7.18157C46.7341 7.94548 49.1028 9.93025 50.8427 12.8462C47.0289 13.6684 42.9024 15.2315 39.7249 18.1577C36.6994 20.9436 34.9588 24.5632 34.532 28.9384C33.1894 28.1053 31.8608 27.465 30.5509 27.0209V17.5341C30.5791 17.4681 30.6054 17.4008 30.6259 17.3303C32.4351 11.0498 36.884 6.82973 41.6962 6.82973ZM21.9216 12.1778C21.9216 11.931 22.1222 11.7304 22.3689 11.7304H26.8223C27.0691 11.7304 27.2697 11.931 27.2697 12.1778V26.3147C26.7198 26.2666 26.1744 26.2538 25.6322 26.2781C24.3486 26.3352 23.1104 26.5979 21.9216 27.0606V12.1778ZM18.725 33.3738C20.8456 30.9546 23.2187 29.6703 25.7784 29.5562C29.0423 29.4101 32.7978 31.184 36.6712 34.6934C35.6695 36.6589 32.8824 41.1078 27.1934 43.6976C20.9148 46.5552 18.2347 50.4325 17.0914 53.1811C17.0722 53.2279 17.0542 53.2734 17.035 53.3196C14.9612 48.7252 13.846 38.9385 18.725 33.3738Z" fill="black"/>
<path d="M32.783 65.9806C32.0858 65.4019 31.0514 65.4986 30.4727 66.1959C29.8946 66.8932 29.9908 67.9275 30.688 68.5056C35.1261 72.188 40.4414 74.8348 46.0587 76.1614C46.1856 76.1915 46.3124 76.2056 46.4374 76.2056C47.1808 76.2056 47.8544 75.6968 48.0325 74.9418C48.2408 74.06 47.6948 73.1762 46.813 72.968C41.6854 71.7574 36.834 69.3406 32.783 65.9806Z" fill="black"/>
<path d="M26.3923 61.7918C25.7072 62.3853 25.6297 63.4164 26.2225 64.1009C26.5474 64.4905 27.0139 64.6911 27.4843 64.6911C27.8548 64.6911 28.2271 64.5668 28.5334 64.3111C29.2294 63.7311 29.3236 62.6967 28.7437 62.0008L28.7103 61.9617C28.1169 61.2766 27.0768 61.1984 26.3923 61.7918Z" fill="black"/>
</svg>
